<?xml version="1.0" encoding="UTF-8"?>
<svg width="448px" height="107px" viewBox="0 0 448 107" version="1.1" xmlns="http://www.w3.org/2000/svg" xmlns:xlink="http://www.w3.org/1999/xlink">
    <!-- Generator: Sketch 52.2 (67145) - http://www.bohemiancoding.com/sketch -->
    <title>brand</title>
    <desc>Created with Sketch.</desc>
    <defs>
        <linearGradient x1="5.26431075%" y1="0%" x2="109.437062%" y2="104.734959%" id="linearGradient-1">
            <stop stop-color="#2EBF91" offset="0%"></stop>
            <stop stop-color="#8360C3" offset="100%"></stop>
        </linearGradient>
    </defs>
    <g id="Page-1" stroke="none" stroke-width="1" fill="none" fill-rule="evenodd">
        <g id="Branding-Copy-8" transform="translate(-526.000000, -141.000000)">
            <g id="brand" transform="translate(526.000000, 141.000000)">
                <g id="logo">
                    <path d="M130.766268,45.5740246 C130.766268,44.4726924 130.737288,43.0525749 130.679327,41.3136294 C130.621366,39.5746839 130.534426,38.0096565 130.418504,36.6185001 L136.069682,36.6185001 C136.185604,37.7198322 136.272545,38.9370758 136.330506,40.2702673 C136.388467,41.6034589 136.417447,42.7047745 136.417447,43.5742473 L136.591329,43.5742473 C137.750551,41.1976884 139.489358,39.2703861 141.807802,37.7922824 C144.126246,36.3141788 146.734456,35.575138 149.63251,35.575138 C150.386005,35.575138 151.067037,35.60412 151.675629,35.6620849 C152.28422,35.7200497 152.907293,35.8359777 153.544865,36.0098722 L152.762394,41.5744699 C152.414627,41.4585402 151.835025,41.3426123 151.02357,41.2266826 C150.212114,41.1107529 149.400671,41.0527889 148.589216,41.0527889 C147.024266,41.0527889 145.517301,41.3426088 144.068273,41.9222573 C142.619246,42.5019058 141.358611,43.4148385 140.286331,44.6610827 C139.21405,45.907327 138.344647,47.5013365 137.678094,49.4431589 C137.011542,51.3849814 136.678271,53.7180316 136.678271,56.4423795 L136.678271,77.309621 L130.766268,77.309621 L130.766268,45.5740246 Z M191.538172,53.8339743 C191.364289,50.0082942 190.132634,46.8347663 187.843171,44.3132954 C185.553708,41.7918244 182.293445,40.5311079 178.062285,40.5311079 C176.091608,40.5311079 174.265861,40.8933827 172.584989,41.6179434 C170.904117,42.342504 169.426132,43.3278916 168.150987,44.5741359 C166.875843,45.8203802 165.861539,47.2404977 165.108045,48.834531 C164.354551,50.4285644 163.919849,52.0950288 163.803927,53.8339743 L191.538172,53.8339743 Z M197.537115,57.0510074 C197.537115,57.5147262 197.508135,58.00742 197.450174,58.5291036 L163.716986,58.5291036 C163.774947,60.5578734 164.180669,62.4706847 164.934163,64.2675951 C165.687657,66.0645054 166.730941,67.6295328 168.064046,68.9627244 C169.397151,70.2959159 170.962078,71.3537586 172.758871,72.136284 C174.555665,72.9188095 176.497333,73.3100664 178.583932,73.3100664 C181.65587,73.3100664 184.307551,72.6000076 186.539053,71.1798688 C188.770555,69.75973 190.465891,68.1222475 191.625113,66.2673724 L196.059115,69.7452459 C193.624749,72.817383 190.944089,75.0200142 188.017053,76.3532057 C185.090018,77.6863973 181.945676,78.3529831 178.583932,78.3529831 C175.569955,78.3529831 172.773375,77.8168162 170.194106,76.7444665 C167.614837,75.6721168 165.397859,74.1795443 163.543104,72.2667043 C161.688348,70.3538643 160.224853,68.093269 159.152573,65.4848508 C158.080292,62.8764326 157.54416,60.0361976 157.54416,56.9640605 C157.54416,53.8919235 158.065802,51.0516885 159.109102,48.4432703 C160.152402,45.834852 161.601407,43.5742568 163.456162,41.6614168 C165.310917,39.7485767 167.484426,38.2560043 169.976753,37.1836545 C172.46908,36.1113048 175.16423,35.575138 178.062285,35.575138 C181.250145,35.575138 184.061216,36.1113048 186.495582,37.1836545 C188.929948,38.2560043 190.958556,39.7051038 192.581467,41.5309965 C194.204377,43.3568893 195.436032,45.4870655 196.276468,47.9215892 C197.116904,50.3561129 197.537115,52.964492 197.537115,55.7468048 L197.537115,57.0510074 Z M231.878892,46.2695993 C231.009476,44.5886186 229.690881,43.2119741 227.923067,42.1396244 C226.155254,41.0672747 224.141136,40.5311079 221.880653,40.5311079 C220.837354,40.5311079 219.79407,40.6470358 218.75077,40.8788952 C217.70747,41.1107546 216.780107,41.4875205 215.968651,42.0092041 C215.157196,42.5308878 214.505143,43.1974736 214.012474,44.0089814 C213.519805,44.8204893 213.273474,45.776895 213.273474,46.8782272 C213.273474,48.7910672 214.055937,50.2546577 215.620887,51.2690425 C217.185836,52.2834274 219.649146,53.1383961 223.010889,53.8339743 C227.82166,54.8193768 231.371724,56.2539853 233.661187,58.1378429 C235.95065,60.0217005 237.095365,62.5576246 237.095365,65.7456913 C237.095365,68.0642853 236.646173,70.0205696 235.747776,71.614603 C234.849379,73.2086364 233.675684,74.5128259 232.226657,75.5272108 C230.77763,76.5415956 229.140253,77.2661454 227.314479,77.7008818 C225.488704,78.1356181 223.648467,78.3529831 221.793712,78.3529831 C218.721774,78.3529831 215.736823,77.7153793 212.838768,76.4401526 C209.940713,75.1649259 207.564344,73.1651686 205.709589,70.4408207 L210.404414,66.9629471 C211.447714,68.7598574 212.98366,70.2669209 215.012298,71.4841827 C217.040936,72.7014446 219.272405,73.3100664 221.706771,73.3100664 C222.981915,73.3100664 224.19908,73.1941384 225.358302,72.962279 C226.517524,72.7304196 227.531828,72.3246717 228.401244,71.7450233 C229.27066,71.1653748 229.966183,70.426334 230.487833,69.5278788 C231.009483,68.6294237 231.270304,67.5136171 231.270304,66.1804255 C231.270304,64.0357261 230.24151,62.4272256 228.183891,61.3548759 C226.126272,60.2825262 223.155811,59.2826476 219.272417,58.35521 C218.055234,58.0653857 216.765619,57.7031108 215.403534,57.2683745 C214.041448,56.8336381 212.780813,56.1960343 211.621591,55.355544 C210.462369,54.5150537 209.506025,53.4572111 208.752531,52.1819844 C207.999037,50.9067577 207.622295,49.3127482 207.622295,47.3999082 C207.622295,45.3131736 208.028017,43.5307812 208.839472,42.0526776 C209.650928,40.5745739 210.737682,39.3573303 212.099768,38.4009103 C213.461853,37.4444903 215.012289,36.7344315 216.751122,36.2707127 C218.489955,35.8069939 220.286722,35.575138 222.141477,35.575138 C224.981571,35.575138 227.734681,36.2127418 230.400892,37.4879685 C233.067102,38.7631952 235.06673,40.5600786 236.399835,42.8786725 L231.878892,46.2695993 Z M254.74443,98.1768625 L248.832428,98.1768625 L248.832428,36.6185001 L254.74443,36.6185001 L254.74443,43.6611941 L255.005253,43.6611941 C256.686125,40.994811 258.932084,38.9805627 261.743197,37.6183887 C264.55431,36.2562148 267.408851,35.575138 270.306906,35.575138 C273.494766,35.575138 276.378287,36.1257958 278.957556,37.227128 C281.536825,38.3284601 283.739313,39.8355236 285.565088,41.7483636 C287.390862,43.6612037 288.810888,45.9217989 289.825207,48.5302171 C290.839526,51.1386353 291.346678,53.9498884 291.346678,56.9640605 C291.346678,59.9782327 290.839526,62.7894857 289.825207,65.397904 C288.810888,68.0063222 287.390862,70.2669174 285.565088,72.1797574 C283.739313,74.0925975 281.536825,75.599661 278.957556,76.7009931 C276.378287,77.8023252 273.494766,78.3529831 270.306906,78.3529831 C267.408851,78.3529831 264.55431,77.6719063 261.743197,76.3097323 C258.932084,74.9475584 256.686125,72.991274 255.005253,70.4408207 L254.74443,70.4408207 L254.74443,98.1768625 Z M284.043616,50.5734678 C283.348083,48.5736805 282.348269,46.8347611 281.044145,45.3566575 C279.74002,43.8785538 278.131624,42.7047832 276.218908,41.8353105 C274.306192,40.9658377 272.132683,40.5311079 269.698317,40.5311079 C267.437835,40.5311079 265.351267,40.9513467 263.43855,41.791837 C261.525834,42.6323274 259.873968,43.791607 258.482902,45.2697106 C257.091835,46.7478143 256.005081,48.4867337 255.222606,50.486521 C254.440132,52.4863083 254.0489,54.6454666 254.0489,56.9640605 C254.0489,59.2826545 254.440132,61.4418128 255.222606,63.4416001 C256.005081,65.4413874 257.091835,67.1658158 258.482902,68.614937 C259.873968,70.0640583 261.525834,71.2088469 263.43855,72.0493372 C265.351267,72.8898275 267.437835,73.3100664 269.698317,73.3100664 C272.132683,73.3100664 274.306192,72.8898275 276.218908,72.0493372 C278.131624,71.2088469 279.74002,70.0495673 281.044145,68.5714636 C282.348269,67.0933599 283.348083,65.3544405 284.043616,63.3546532 C284.73915,61.3548659 285.086911,59.2246897 285.086911,56.9640605 C285.086911,54.7034314 284.73915,52.5732551 284.043616,50.5734678 Z M342.859343,65.4848508 C341.787063,68.093269 340.294587,70.3538643 338.381871,72.2667043 C336.469155,74.1795443 334.179726,75.6721168 331.513515,76.7444665 C328.847305,77.8168162 325.920314,78.3529831 322.732454,78.3529831 C319.602554,78.3529831 316.704543,77.8168162 314.038333,76.7444665 C311.372123,75.6721168 309.082694,74.1795443 307.169978,72.2667043 C305.257261,70.3538643 303.764786,68.093269 302.692505,65.4848508 C301.620225,62.8764326 301.084093,60.0361976 301.084093,56.9640605 C301.084093,53.8919235 301.620225,51.0516885 302.692505,48.4432703 C303.764786,45.834852 305.257261,43.5742568 307.169978,41.6614168 C309.082694,39.7485767 311.372123,38.2560043 314.038333,37.1836545 C316.704543,36.1113048 319.602554,35.575138 322.732454,35.575138 C325.920314,35.575138 328.847305,36.1113048 331.513515,37.1836545 C334.179726,38.2560043 336.469155,39.7485767 338.381871,41.6614168 C340.294587,43.5742568 341.787063,45.834852 342.859343,48.4432703 C343.931623,51.0516885 344.467755,53.8919235 344.467755,56.9640605 C344.467755,60.0361976 343.931623,62.8764326 342.859343,65.4848508 Z M337.121223,50.5734678 C336.39671,48.5736805 335.367916,46.8347611 334.03481,45.3566575 C332.701705,43.8785538 331.078819,42.7047832 329.166103,41.8353105 C327.253387,40.9658377 325.108858,40.5311079 322.732454,40.5311079 C320.356049,40.5311079 318.22601,40.9658377 316.342275,41.8353105 C314.458539,42.7047832 312.850143,43.8785538 311.517038,45.3566575 C310.183933,46.8347611 309.155139,48.5736805 308.430625,50.5734678 C307.706111,52.5732551 307.34386,54.7034314 307.34386,56.9640605 C307.34386,59.2246897 307.706111,61.3548659 308.430625,63.3546532 C309.155139,65.3544405 310.183933,67.0933599 311.517038,68.5714636 C312.850143,70.0495673 314.458539,71.2088469 316.342275,72.0493372 C318.22601,72.8898275 320.356049,73.3100664 322.732454,73.3100664 C325.108858,73.3100664 327.253387,72.8898275 329.166103,72.0493372 C331.078819,71.2088469 332.701705,70.0495673 334.03481,68.5714636 C335.367916,67.0933599 336.39671,65.3544405 337.121223,63.3546532 C337.845737,61.3548659 338.207988,59.2246897 338.207988,56.9640605 C338.207988,54.7034314 337.845737,52.5732551 337.121223,50.5734678 Z M362.464585,36.6185001 C362.580507,37.7198322 362.667448,38.9370758 362.725409,40.2702673 C362.78337,41.6034589 362.81235,42.7047745 362.81235,43.5742473 L362.986232,43.5742473 C364.145454,41.1976884 366.029162,39.2703861 368.637411,37.7922824 C371.24566,36.3141788 373.998771,35.575138 376.896826,35.575138 C382.055363,35.575138 385.924208,37.1111835 388.503477,40.1833205 C391.082745,43.2554575 392.37236,47.3129361 392.37236,52.355878 L392.37236,77.309621 L386.460358,77.309621 L386.460358,54.7903895 C386.460358,52.6456901 386.286478,50.7038968 385.938711,48.9649513 C385.590945,47.2260058 384.996852,45.7334333 384.156416,44.4871891 C383.31598,43.2409448 382.185756,42.2700481 380.765709,41.5744699 C379.345662,40.8788917 377.563386,40.5311079 375.418825,40.5311079 C373.853875,40.5311079 372.33242,40.8499098 370.854412,41.4875231 C369.376404,42.1251364 368.057809,43.0960331 366.898587,44.4002422 C365.739365,45.7044513 364.812001,47.3564248 364.116468,49.3562121 C363.420935,51.3559994 363.073174,53.7180316 363.073174,56.4423795 L363.073174,77.309621 L357.161172,77.309621 L357.161172,45.5740246 C357.161172,44.4726924 357.132191,43.0525749 357.07423,41.3136294 C357.016269,39.5746839 356.929329,38.0096565 356.813407,36.6185001 L362.464585,36.6185001 Z M441.146378,70.4408207 C439.407545,73.0492389 437.147096,75.0200142 434.364963,76.3532057 C431.582831,77.6863973 428.7138,78.3529831 425.757784,78.3529831 C422.569924,78.3529831 419.686403,77.8023252 417.107134,76.7009931 C414.527865,75.599661 412.325377,74.0925975 410.499602,72.1797574 C408.673828,70.2669174 407.253802,68.0063222 406.239483,65.397904 C405.225164,62.7894857 404.718012,59.9782327 404.718012,56.9640605 C404.718012,53.9498884 405.225164,51.1386353 406.239483,48.5302171 C407.253802,45.9217989 408.673828,43.6612037 410.499602,41.7483636 C412.325377,39.8355236 414.527865,38.3284601 417.107134,37.227128 C419.686403,36.1257958 422.569924,35.575138 425.757784,35.575138 C428.7138,35.575138 431.582831,36.2562148 434.364963,37.6183887 C437.147096,38.9805627 439.407545,40.994811 441.146378,43.6611941 L441.32026,43.6611941 L441.32026,11.5778103 L447.232262,11.5778103 L447.232262,77.309621 L441.32026,77.309621 L441.32026,70.4408207 L441.146378,70.4408207 Z M412.021073,63.3546532 C412.716606,65.3544405 413.71642,67.0933599 415.020545,68.5714636 C416.324669,70.0495673 417.933066,71.2088469 419.845782,72.0493372 C421.758498,72.8898275 423.932006,73.3100664 426.366372,73.3100664 C428.626855,73.3100664 430.713423,72.8898275 432.626139,72.0493372 C434.538855,71.2088469 436.190722,70.0640583 437.581788,68.614937 C438.972854,67.1658158 440.059609,65.4413874 440.842083,63.4416001 C441.624558,61.4418128 442.01579,59.2826545 442.01579,56.9640605 C442.01579,54.6454666 441.624558,52.4863083 440.842083,50.486521 C440.059609,48.4867337 438.972854,46.7478143 437.581788,45.2697106 C436.190722,43.791607 434.538855,42.6323274 432.626139,41.791837 C430.713423,40.9513467 428.626855,40.5311079 426.366372,40.5311079 C423.932006,40.5311079 421.758498,40.9658377 419.845782,41.8353105 C417.933066,42.7047832 416.324669,43.8785538 415.020545,45.3566575 C413.71642,46.8347611 412.716606,48.5736805 412.021073,50.5734678 C411.32554,52.5732551 410.977779,54.7034314 410.977779,56.9640605 C410.977779,59.2246897 411.32554,61.3548659 412.021073,63.3546532 Z" id="respond-" fill="#39325C"></path>
                    <rect id="Rectangle" fill="url(#linearGradient-1)" x="0" y="0" width="107" height="107" rx="8"></rect>
                    <path d="M36,31 L60.9994225,31 C62.6565957,31 64,32.3465171 64,34 C64,35.6568542 62.6480353,37 60.9994225,37 L36,37 L36,73.9995558 C36,75.6566554 34.6534829,77 33,77 C31.3431458,77 30,75.6482195 30,73.9995558 L30,34.0004442 C30,32.3433446 31.3465171,31 33,31 L36,31 Z M71,77 L44.9961002,77 C43.3413998,77 42,75.6534829 42,74 C42,72.3431458 43.3342595,71 44.9961002,71 L71,71 L71,34.0004442 C71,32.3433446 72.3465171,31 74,31 C75.6568542,31 77,32.3517805 77,34.0004442 L77,73.9995558 C77,75.6566554 75.6579424,77 74,77 L71,77 Z" id="Combined-Shape" fill="#FFFFFF"></path>
                </g>
            </g>
        </g>
    </g>
</svg>