<?xml version="1.0" encoding="UTF-8"?>
<svg width="421px" height="87px" viewBox="0 0 421 87" version="1.1" xmlns="http://www.w3.org/2000/svg" xmlns:xlink="http://www.w3.org/1999/xlink">
    <!-- Generator: Sketch 52.2 (67145) - http://www.bohemiancoding.com/sketch -->
    <title>brand</title>
    <desc>Created with Sketch.</desc>
    <defs>
        <path d="M6.86964103,9.59232693e-13 L46.6952763,1.11771159e-12 C50.4928703,1.11771159e-12 53.5714286,3.07351176 53.5714286,6.86425308 L53.5714286,8.23378614 C53.5714286,12.0248084 50.4889749,15.0980392 46.6952763,15.0980392 L17.2637363,15.0980392 C16.0741999,15.0980392 15.1098901,16.062349 15.1098901,17.2518854 L15.1098901,63.1286356 C15.1098901,66.9235854 12.0339659,70 8.24024908,70 L6.86964103,70 C3.07564305,70 -1.54365409e-11,66.9245587 -1.54365409e-11,63.1286356 L-1.54365409e-11,6.87136437 C-1.54365409e-11,3.07641462 3.07592425,9.59232693e-13 6.86964103,9.59232693e-13 Z M68.130359,70 L28.3047237,70 C24.5071297,70 21.4285714,66.9264882 21.4285714,63.1357469 L21.4285714,61.7662139 C21.4285714,57.9751916 24.5110251,54.9019608 28.3047237,54.9019608 L57.7362637,54.9019608 C58.9258001,54.9019608 59.8901099,53.937651 59.8901099,52.7481146 L59.8901099,6.87136437 C59.8901099,3.07641462 62.9660341,1.5063506e-12 66.7597509,1.5063506e-12 L68.130359,1.5063506e-12 C71.9243569,1.5063506e-12 75,3.07544128 75,6.87136437 L75,63.1286356 C75,66.9235854 71.9240757,70 68.130359,70 Z" id="path-1"></path>
        <linearGradient x1="5.26431075%" y1="0%" x2="109.437062%" y2="104.734959%" id="linearGradient-3">
            <stop stop-color="#2EBF91" offset="0%"></stop>
            <stop stop-color="#8360C3" offset="100%"></stop>
        </linearGradient>
    </defs>
    <g id="Page-1" stroke="none" stroke-width="1" fill="none" fill-rule="evenodd">
        <g id="Branding-Copy-9" transform="translate(-552.000000, -153.000000)">
            <g id="brand" transform="translate(552.000000, 153.000000)">
                <g id="logo">
                    <path d="M104.347765,33.9962142 C104.347765,32.8948821 104.318785,31.4747646 104.260824,29.7358191 C104.202863,27.9968736 104.115922,26.4318462 104,25.0406898 L109.651178,25.0406898 C109.767101,26.1420219 109.854041,27.3592655 109.912002,28.692457 C109.969963,30.0256486 109.998943,31.1269642 109.998943,31.9964369 L110.172826,31.9964369 C111.332048,29.6198781 113.070854,27.6925758 115.389298,26.2144721 C117.707742,24.7363685 120.315952,23.9973277 123.214007,23.9973277 C123.967501,23.9973277 124.648534,24.0263097 125.257125,24.0842745 C125.865717,24.1422394 126.488789,24.2581674 127.126361,24.4320619 L126.34389,29.9966596 C125.996124,29.8807299 125.416521,29.764802 124.605066,29.6488723 C123.793611,29.5329426 122.982168,29.4749786 122.170712,29.4749786 C120.605763,29.4749786 119.098797,29.7647985 117.64977,30.344447 C116.200742,30.9240955 114.940107,31.8370282 113.867827,33.0832724 C112.795547,34.3295167 111.926143,35.9235261 111.259591,37.8653486 C110.593038,39.8071711 110.259767,42.1402213 110.259767,44.8645692 L110.259767,65.7318107 L104.347765,65.7318107 L104.347765,33.9962142 Z M165.119669,42.256164 C164.945785,38.4304839 163.71413,35.256956 161.424667,32.7354851 C159.135204,30.2140141 155.874941,28.9532976 151.643781,28.9532976 C149.673104,28.9532976 147.847357,29.3155724 146.166485,30.0401331 C144.485614,30.7646937 143.007628,31.7500813 141.732484,32.9963256 C140.45734,34.2425699 139.443036,35.6626874 138.689542,37.2567207 C137.936047,38.8507541 137.501346,40.5172185 137.385423,42.256164 L165.119669,42.256164 Z M171.118612,45.4731971 C171.118612,45.9369159 171.089632,46.4296097 171.031671,46.9512933 L137.298482,46.9512933 C137.356443,48.9800631 137.762165,50.8928744 138.515659,52.6897847 C139.269153,54.4866951 140.312437,56.0517225 141.645543,57.3849141 C142.978648,58.7181056 144.543574,59.7759483 146.340368,60.5584737 C148.137162,61.3409992 150.078829,61.7322561 152.165429,61.7322561 C155.237367,61.7322561 157.889047,61.0221973 160.120549,59.6020585 C162.352051,58.1819197 164.047388,56.5444372 165.20661,54.6895621 L169.640611,58.1674356 C167.206245,61.2395727 164.525585,63.4422039 161.59855,64.7753954 C158.671514,66.108587 155.527172,66.7751727 152.165429,66.7751727 C149.151452,66.7751727 146.354871,66.2390059 143.775602,65.1666562 C141.196334,64.0943065 138.979355,62.601734 137.1246,60.688894 C135.269845,58.7760539 133.806349,56.5154587 132.734069,53.9070405 C131.661789,51.2986223 131.125657,48.4583872 131.125657,45.3862502 C131.125657,42.3141132 131.647299,39.4738782 132.690598,36.86546 C133.733898,34.2570417 135.182904,31.9964465 137.037659,30.0836065 C138.892414,28.1707664 141.065922,26.678194 143.558249,25.6058442 C146.050576,24.5334945 148.745727,23.9973277 151.643781,23.9973277 C154.831642,23.9973277 157.642713,24.5334945 160.077079,25.6058442 C162.511445,26.678194 164.540052,28.1272935 166.162963,29.9531862 C167.785874,31.779079 169.017528,33.9092552 169.857964,36.3437789 C170.6984,38.7783026 171.118612,41.3866817 171.118612,44.1689945 L171.118612,45.4731971 Z M205.460389,34.691789 C204.590972,33.0108083 203.272377,31.6341638 201.504564,30.5618141 C199.73675,29.4894644 197.722632,28.9532976 195.46215,28.9532976 C194.41885,28.9532976 193.375566,29.0692255 192.332266,29.3010849 C191.288967,29.5329443 190.361603,29.9097102 189.550148,30.4313938 C188.738692,30.9530775 188.08664,31.6196632 187.593971,32.4311711 C187.101301,33.242679 186.85497,34.1990847 186.85497,35.3004168 C186.85497,37.2132569 187.637433,38.6768474 189.202383,39.6912322 C190.767332,40.7056171 193.230642,41.5605858 196.592385,42.256164 C201.403156,43.2415664 204.95322,44.6761749 207.242683,46.5600326 C209.532147,48.4438902 210.676861,50.9798143 210.676861,54.167881 C210.676861,56.486475 210.227669,58.4427593 209.329272,60.0367927 C208.430875,61.630826 207.257181,62.9350156 205.808153,63.9494005 C204.359126,64.9637853 202.72175,65.6883351 200.895975,66.1230714 C199.070201,66.5578078 197.229964,66.7751727 195.375209,66.7751727 C192.303271,66.7751727 189.318319,66.137569 186.420264,64.8623423 C183.52221,63.5871156 181.14584,61.5873583 179.291085,58.8630103 L183.98591,55.3851368 C185.02921,57.1820471 186.565156,58.6891106 188.593794,59.9063724 C190.622433,61.1236343 192.853901,61.7322561 195.288267,61.7322561 C196.563411,61.7322561 197.780576,61.6163281 198.939798,61.3844687 C200.09902,61.1526093 201.113324,60.7468614 201.98274,60.1672129 C202.852157,59.5875644 203.547679,58.8485237 204.069329,57.9500685 C204.590979,57.0516134 204.8518,55.9358068 204.8518,54.6026152 C204.8518,52.4579158 203.823006,50.8494153 201.765387,49.7770656 C199.707768,48.7047159 196.737307,47.7048372 192.853914,46.7773997 C191.636731,46.4875754 190.347116,46.1253005 188.98503,45.6905642 C187.622944,45.2558278 186.362309,44.618224 185.203087,43.7777337 C184.043865,42.9372434 183.087522,41.8794007 182.334028,40.6041741 C181.580533,39.3289474 181.203792,37.7349379 181.203792,35.8220979 C181.203792,33.7353633 181.609513,31.9529709 182.420969,30.4748672 C183.232424,28.9967636 184.319178,27.77952 185.681264,26.8231 C187.04335,25.86668 188.593786,25.1566212 190.332619,24.6929024 C192.071451,24.2291836 193.868218,23.9973277 195.722973,23.9973277 C198.563067,23.9973277 201.316178,24.6349315 203.982388,25.9101582 C206.648598,27.1853849 208.648226,28.9822682 209.981331,31.3008622 L205.460389,34.691789 Z M228.325926,86.5990522 L222.413924,86.5990522 L222.413924,25.0406898 L228.325926,25.0406898 L228.325926,32.0833838 L228.58675,32.0833838 C230.267621,29.4170007 232.51358,27.4027524 235.324693,26.0405784 C238.135806,24.6784045 240.990347,23.9973277 243.888402,23.9973277 C247.076262,23.9973277 249.959784,24.5479855 252.539052,25.6493177 C255.118321,26.7506498 257.320809,28.2577133 259.146584,30.1705533 C260.972358,32.0833933 262.392384,34.3439886 263.406703,36.9524068 C264.421022,39.560825 264.928174,42.3720781 264.928174,45.3862502 C264.928174,48.4004224 264.421022,51.2116754 263.406703,53.8200937 C262.392384,56.4285119 260.972358,58.6891071 259.146584,60.6019471 C257.320809,62.5147872 255.118321,64.0218507 252.539052,65.1231828 C249.959784,66.2245149 247.076262,66.7751727 243.888402,66.7751727 C240.990347,66.7751727 238.135806,66.094096 235.324693,64.731922 C232.51358,63.3697481 230.267621,61.4134637 228.58675,58.8630103 L228.325926,58.8630103 L228.325926,86.5990522 Z M257.625113,38.9956575 C256.92958,36.9958702 255.929766,35.2569508 254.625641,33.7788471 C253.321517,32.3007435 251.71312,31.1269729 249.800404,30.2575001 C247.887688,29.3880274 245.71418,28.9532976 243.279814,28.9532976 C241.019331,28.9532976 238.932763,29.3735364 237.020047,30.2140267 C235.107331,31.054517 233.455464,32.2137966 232.064398,33.6919003 C230.673332,35.170004 229.586577,36.9089234 228.804103,38.9087107 C228.021628,40.908498 227.630396,43.0676562 227.630396,45.3862502 C227.630396,47.7048442 228.021628,49.8640025 228.804103,51.8637898 C229.586577,53.8635771 230.673332,55.5880055 232.064398,57.0371267 C233.455464,58.486248 235.107331,59.6310366 237.020047,60.4715269 C238.932763,61.3120172 241.019331,61.7322561 243.279814,61.7322561 C245.71418,61.7322561 247.887688,61.3120172 249.800404,60.4715269 C251.71312,59.6310366 253.321517,58.471757 254.625641,56.9936533 C255.929766,55.5155496 256.92958,53.7766302 257.625113,51.7768429 C258.320646,49.7770556 258.668407,47.6468794 258.668407,45.3862502 C258.668407,43.1256211 258.320646,40.9954448 257.625113,38.9956575 Z M316.440839,53.9070405 C315.368559,56.5154587 313.876083,58.7760539 311.963367,60.688894 C310.050651,62.601734 307.761222,64.0943065 305.095012,65.1666562 C302.428802,66.2390059 299.50181,66.7751727 296.31395,66.7751727 C293.184051,66.7751727 290.28604,66.2390059 287.619829,65.1666562 C284.953619,64.0943065 282.66419,62.601734 280.751474,60.688894 C278.838758,58.7760539 277.346282,56.5154587 276.274002,53.9070405 C275.201721,51.2986223 274.665589,48.4583872 274.665589,45.3862502 C274.665589,42.3141132 275.201721,39.4738782 276.274002,36.86546 C277.346282,34.2570417 278.838758,31.9964465 280.751474,30.0836065 C282.66419,28.1707664 284.953619,26.678194 287.619829,25.6058442 C290.28604,24.5334945 293.184051,23.9973277 296.31395,23.9973277 C299.50181,23.9973277 302.428802,24.5334945 305.095012,25.6058442 C307.761222,26.678194 310.050651,28.1707664 311.963367,30.0836065 C313.876083,31.9964465 315.368559,34.2570417 316.440839,36.86546 C317.51312,39.4738782 318.049252,42.3141132 318.049252,45.3862502 C318.049252,48.4583872 317.51312,51.2986223 316.440839,53.9070405 Z M310.70272,38.9956575 C309.978206,36.9958702 308.949412,35.2569508 307.616307,33.7788471 C306.283202,32.3007435 304.660315,31.1269729 302.747599,30.2575001 C300.834883,29.3880274 298.690355,28.9532976 296.31395,28.9532976 C293.937545,28.9532976 291.807507,29.3880274 289.923771,30.2575001 C288.040036,31.1269729 286.431639,32.3007435 285.098534,33.7788471 C283.765429,35.2569508 282.736635,36.9958702 282.012121,38.9956575 C281.287608,40.9954448 280.925356,43.1256211 280.925356,45.3862502 C280.925356,47.6468794 281.287608,49.7770556 282.012121,51.7768429 C282.736635,53.7766302 283.765429,55.5155496 285.098534,56.9936533 C286.431639,58.471757 288.040036,59.6310366 289.923771,60.4715269 C291.807507,61.3120172 293.937545,61.7322561 296.31395,61.7322561 C298.690355,61.7322561 300.834883,61.3120172 302.747599,60.4715269 C304.660315,59.6310366 306.283202,58.471757 307.616307,56.9936533 C308.949412,55.5155496 309.978206,53.7766302 310.70272,51.7768429 C311.427233,49.7770556 311.789485,47.6468794 311.789485,45.3862502 C311.789485,43.1256211 311.427233,40.9954448 310.70272,38.9956575 Z M336.046082,25.0406898 C336.162004,26.1420219 336.248944,27.3592655 336.306905,28.692457 C336.364866,30.0256486 336.393846,31.1269642 336.393846,31.9964369 L336.567729,31.9964369 C337.726951,29.6198781 339.610658,27.6925758 342.218907,26.2144721 C344.827157,24.7363685 347.580267,23.9973277 350.478322,23.9973277 C355.636859,23.9973277 359.505704,25.5333732 362.084973,28.6055102 C364.664242,31.6776472 365.953857,35.7351258 365.953857,40.7780677 L365.953857,65.7318107 L360.041855,65.7318107 L360.041855,43.2125792 C360.041855,41.0678798 359.867974,39.1260865 359.520207,37.387141 C359.172441,35.6481955 358.578349,34.155623 357.737913,32.9093788 C356.897477,31.6631345 355.767252,30.6922378 354.347206,29.9966596 C352.927159,29.3010814 351.144882,28.9532976 349.000321,28.9532976 C347.435372,28.9532976 345.913916,29.2720994 344.435908,29.9097128 C342.9579,30.5473261 341.639305,31.5182228 340.480083,32.8224319 C339.320861,34.126641 338.393498,35.7786145 337.697964,37.7784018 C337.002431,39.7781891 336.65467,42.1402213 336.65467,44.8645692 L336.65467,65.7318107 L330.742668,65.7318107 L330.742668,33.9962142 C330.742668,32.8948821 330.713688,31.4747646 330.655727,29.7358191 C330.597766,27.9968736 330.510825,26.4318462 330.394903,25.0406898 L336.046082,25.0406898 Z M414.727874,58.8630103 C412.989041,61.4714286 410.728592,63.4422039 407.94646,64.7753954 C405.164327,66.108587 402.295296,66.7751727 399.33928,66.7751727 C396.15142,66.7751727 393.267899,66.2245149 390.68863,65.1231828 C388.109361,64.0218507 385.906873,62.5147872 384.081098,60.6019471 C382.255324,58.6891071 380.835298,56.4285119 379.820979,53.8200937 C378.80666,51.2116754 378.299508,48.4004224 378.299508,45.3862502 C378.299508,42.3720781 378.80666,39.560825 379.820979,36.9524068 C380.835298,34.3439886 382.255324,32.0833933 384.081098,30.1705533 C385.906873,28.2577133 388.109361,26.7506498 390.68863,25.6493177 C393.267899,24.5479855 396.15142,23.9973277 399.33928,23.9973277 C402.295296,23.9973277 405.164327,24.6784045 407.94646,26.0405784 C410.728592,27.4027524 412.989041,29.4170007 414.727874,32.0833838 L414.901756,32.0833838 L414.901756,0 L420.813758,0 L420.813758,65.7318107 L414.901756,65.7318107 L414.901756,58.8630103 L414.727874,58.8630103 Z M385.60257,51.7768429 C386.298103,53.7766302 387.297917,55.5155496 388.602041,56.9936533 C389.906166,58.471757 391.514562,59.6310366 393.427278,60.4715269 C395.339994,61.3120172 397.513503,61.7322561 399.947869,61.7322561 C402.208351,61.7322561 404.29492,61.3120172 406.207636,60.4715269 C408.120352,59.6310366 409.772218,58.486248 411.163284,57.0371267 C412.554351,55.5880055 413.641105,53.8635771 414.42358,51.8637898 C415.206054,49.8640025 415.597286,47.7048442 415.597286,45.3862502 C415.597286,43.0676562 415.206054,40.908498 414.42358,38.9087107 C413.641105,36.9089234 412.554351,35.170004 411.163284,33.6919003 C409.772218,32.2137966 408.120352,31.054517 406.207636,30.2140267 C404.29492,29.3735364 402.208351,28.9532976 399.947869,28.9532976 C397.513503,28.9532976 395.339994,29.3880274 393.427278,30.2575001 C391.514562,31.1269729 389.906166,32.3007435 388.602041,33.7788471 C387.297917,35.2569508 386.298103,36.9958702 385.60257,38.9956575 C384.907036,40.9954448 384.559275,43.1256211 384.559275,45.3862502 C384.559275,47.6468794 384.907036,49.7770556 385.60257,51.7768429 Z" id="respond-" fill="#777777"></path>
                    <g id="Group" transform="translate(0.000000, 8.000000)">
                        <mask id="mask-2" fill="white">
                            <use xlink:href="#path-1"></use>
                        </mask>
                        <use id="Combined-Shape" fill="#FFFFFF" xlink:href="#path-1"></use>
                        <rect id="Rectangle" fill="url(#linearGradient-3)" mask="url(#mask-2)" x="-6" y="-8" width="84" height="84" rx="8"></rect>
                    </g>
                </g>
            </g>
        </g>
    </g>
</svg>