<?xml version="1.0" encoding="UTF-8"?>
<svg width="440px" height="88px" viewBox="0 0 440 88" version="1.1" xmlns="http://www.w3.org/2000/svg" xmlns:xlink="http://www.w3.org/1999/xlink">
    <!-- Generator: Sketch 52.2 (67145) - http://www.bohemiancoding.com/sketch -->
    <title>logo</title>
    <desc>Created with Sketch.</desc>
    <g id="Page-1" stroke="none" stroke-width="1" fill="none" fill-rule="evenodd">
        <g id="Branding-Copy-8" transform="translate(-534.000000, -152.000000)" fill="#2F3243">
            <g id="brand" transform="translate(0.000000, -4.000000)">
                <g id="logo" transform="translate(534.000000, 156.000000)">
                    <path d="M122.766268,34.5740246 C122.766268,33.4726924 122.737288,32.0525749 122.679327,30.3136294 C122.621366,28.5746839 122.534426,27.0096565 122.418504,25.6185001 L128.069682,25.6185001 C128.185604,26.7198322 128.272545,27.9370758 128.330506,29.2702673 C128.388467,30.6034589 128.417447,31.7047745 128.417447,32.5742473 L128.591329,32.5742473 C129.750551,30.1976884 131.489358,28.2703861 133.807802,26.7922824 C136.126246,25.3141788 138.734456,24.575138 141.63251,24.575138 C142.386005,24.575138 143.067037,24.60412 143.675629,24.6620849 C144.28422,24.7200497 144.907293,24.8359777 145.544865,25.0098722 L144.762394,30.5744699 C144.414627,30.4585402 143.835025,30.3426123 143.02357,30.2266826 C142.212114,30.1107529 141.400671,30.0527889 140.589216,30.0527889 C139.024266,30.0527889 137.517301,30.3426088 136.068273,30.9222573 C134.619246,31.5019058 133.358611,32.4148385 132.286331,33.6610827 C131.21405,34.907327 130.344647,36.5013365 129.678094,38.4431589 C129.011542,40.3849814 128.678271,42.7180316 128.678271,45.4423795 L128.678271,66.309621 L122.766268,66.309621 L122.766268,34.5740246 Z M183.538172,42.8339743 C183.364289,39.0082942 182.132634,35.8347663 179.843171,33.3132954 C177.553708,30.7918244 174.293445,29.5311079 170.062285,29.5311079 C168.091608,29.5311079 166.265861,29.8933827 164.584989,30.6179434 C162.904117,31.342504 161.426132,32.3278916 160.150987,33.5741359 C158.875843,34.8203802 157.861539,36.2404977 157.108045,37.834531 C156.354551,39.4285644 155.919849,41.0950288 155.803927,42.8339743 L183.538172,42.8339743 Z M189.537115,44.7468048 L189.537115,46.0510074 C189.537115,46.5147262 189.508135,47.00742 189.450174,47.5291036 L155.716986,47.5291036 C155.774947,49.5578734 156.180669,51.4706847 156.934163,53.2675951 C157.687657,55.0645054 158.730941,56.6295328 160.064046,57.9627244 C161.397151,59.2959159 162.962078,60.3537586 164.758871,61.136284 C166.555665,61.9188095 168.497333,62.3100664 170.583932,62.3100664 C173.65587,62.3100664 176.307551,61.6000076 178.539053,60.1798688 C180.770555,58.75973 182.465891,57.1222475 183.625113,55.2673724 L188.059115,58.7452459 C185.624749,61.817383 182.944089,64.0200142 180.017053,65.3532057 C177.090018,66.6863973 173.945676,67.3529831 170.583932,67.3529831 C167.569955,67.3529831 164.773375,66.8168162 162.194106,65.7444665 C159.614837,64.6721168 157.397859,63.1795443 155.543104,61.2667043 C153.688348,59.3538643 152.224853,57.093269 151.152573,54.4848508 C150.080292,51.8764326 149.54416,49.0361976 149.54416,45.9640605 C149.54416,42.8919235 150.065802,40.0516885 151.109102,37.4432703 C152.152402,34.834852 153.601407,32.5742568 155.456162,30.6614168 C157.310917,28.7485767 159.484426,27.2560043 161.976753,26.1836545 C164.46908,25.1113048 167.16423,24.575138 170.062285,24.575138 C173.250145,24.575138 176.061216,25.1113048 178.495582,26.1836545 C180.929948,27.2560043 182.958556,28.7051038 184.581467,30.5309965 C186.204377,32.3568893 187.436032,34.4870655 188.276468,36.9215892 C189.116904,39.3561129 189.537115,41.964492 189.537115,44.7468048 L189.537115,44.7468048 Z M223.878892,35.2695993 C223.009476,33.5886186 221.690881,32.2119741 219.923067,31.1396244 C218.155254,30.0672747 216.141136,29.5311079 213.880653,29.5311079 C212.837354,29.5311079 211.79407,29.6470358 210.75077,29.8788952 C209.70747,30.1107546 208.780107,30.4875205 207.968651,31.0092041 C207.157196,31.5308878 206.505143,32.1974736 206.012474,33.0089814 C205.519805,33.8204893 205.273474,34.776895 205.273474,35.8782272 C205.273474,37.7910672 206.055937,39.2546577 207.620887,40.2690425 C209.185836,41.2834274 211.649146,42.1383961 215.010889,42.8339743 C219.82166,43.8193768 223.371724,45.2539853 225.661187,47.1378429 C227.95065,49.0217005 229.095365,51.5576246 229.095365,54.7456913 C229.095365,57.0642853 228.646173,59.0205696 227.747776,60.614603 C226.849379,62.2086364 225.675684,63.5128259 224.226657,64.5272108 C222.77763,65.5415956 221.140253,66.2661454 219.314479,66.7008818 C217.488704,67.1356181 215.648467,67.3529831 213.793712,67.3529831 C210.721774,67.3529831 207.736823,66.7153793 204.838768,65.4401526 C201.940713,64.1649259 199.564344,62.1651686 197.709589,59.4408207 L202.404414,55.9629471 C203.447714,57.7598574 204.98366,59.2669209 207.012298,60.4841827 C209.040936,61.7014446 211.272405,62.3100664 213.706771,62.3100664 C214.981915,62.3100664 216.19908,62.1941384 217.358302,61.962279 C218.517524,61.7304196 219.531828,61.3246717 220.401244,60.7450233 C221.27066,60.1653748 221.966183,59.426334 222.487833,58.5278788 C223.009483,57.6294237 223.270304,56.5136171 223.270304,55.1804255 C223.270304,53.0357261 222.24151,51.4272256 220.183891,50.3548759 C218.126272,49.2825262 215.155811,48.2826476 211.272417,47.35521 C210.055234,47.0653857 208.765619,46.7031108 207.403534,46.2683745 C206.041448,45.8336381 204.780813,45.1960343 203.621591,44.355544 C202.462369,43.5150537 201.506025,42.4572111 200.752531,41.1819844 C199.999037,39.9067577 199.622295,38.3127482 199.622295,36.3999082 C199.622295,34.3131736 200.028017,32.5307812 200.839472,31.0526776 C201.650928,29.5745739 202.737682,28.3573303 204.099768,27.4009103 C205.461853,26.4444903 207.012289,25.7344315 208.751122,25.2707127 C210.489955,24.8069939 212.286722,24.575138 214.141477,24.575138 C216.981571,24.575138 219.734681,25.2127418 222.400892,26.4879685 C225.067102,27.7631952 227.06673,29.5600786 228.399835,31.8786725 L223.878892,35.2695993 Z M246.74443,87.1768625 L240.832428,87.1768625 L240.832428,25.6185001 L246.74443,25.6185001 L246.74443,32.6611941 L247.005253,32.6611941 C248.686125,29.994811 250.932084,27.9805627 253.743197,26.6183887 C256.55431,25.2562148 259.408851,24.575138 262.306906,24.575138 C265.494766,24.575138 268.378287,25.1257958 270.957556,26.227128 C273.536825,27.3284601 275.739313,28.8355236 277.565088,30.7483636 C279.390862,32.6612037 280.810888,34.9217989 281.825207,37.5302171 C282.839526,40.1386353 283.346678,42.9498884 283.346678,45.9640605 C283.346678,48.9782327 282.839526,51.7894857 281.825207,54.397904 C280.810888,57.0063222 279.390862,59.2669174 277.565088,61.1797574 C275.739313,63.0925975 273.536825,64.599661 270.957556,65.7009931 C268.378287,66.8023252 265.494766,67.3529831 262.306906,67.3529831 C259.408851,67.3529831 256.55431,66.6719063 253.743197,65.3097323 C250.932084,63.9475584 248.686125,61.991274 247.005253,59.4408207 L246.74443,59.4408207 L246.74443,87.1768625 Z M277.086911,45.9640605 C277.086911,43.7034314 276.73915,41.5732551 276.043616,39.5734678 C275.348083,37.5736805 274.348269,35.8347611 273.044145,34.3566575 C271.74002,32.8785538 270.131624,31.7047832 268.218908,30.8353105 C266.306192,29.9658377 264.132683,29.5311079 261.698317,29.5311079 C259.437835,29.5311079 257.351267,29.9513467 255.43855,30.791837 C253.525834,31.6323274 251.873968,32.791607 250.482902,34.2697106 C249.091835,35.7478143 248.005081,37.4867337 247.222606,39.486521 C246.440132,41.4863083 246.0489,43.6454666 246.0489,45.9640605 C246.0489,48.2826545 246.440132,50.4418128 247.222606,52.4416001 C248.005081,54.4413874 249.091835,56.1658158 250.482902,57.614937 C251.873968,59.0640583 253.525834,60.2088469 255.43855,61.0493372 C257.351267,61.8898275 259.437835,62.3100664 261.698317,62.3100664 C264.132683,62.3100664 266.306192,61.8898275 268.218908,61.0493372 C270.131624,60.2088469 271.74002,59.0495673 273.044145,57.5714636 C274.348269,56.0933599 275.348083,54.3544405 276.043616,52.3546532 C276.73915,50.3548659 277.086911,48.2246897 277.086911,45.9640605 L277.086911,45.9640605 Z M336.467755,45.9640605 C336.467755,49.0361976 335.931623,51.8764326 334.859343,54.4848508 C333.787063,57.093269 332.294587,59.3538643 330.381871,61.2667043 C328.469155,63.1795443 326.179726,64.6721168 323.513515,65.7444665 C320.847305,66.8168162 317.920314,67.3529831 314.732454,67.3529831 C311.602554,67.3529831 308.704543,66.8168162 306.038333,65.7444665 C303.372123,64.6721168 301.082694,63.1795443 299.169978,61.2667043 C297.257261,59.3538643 295.764786,57.093269 294.692505,54.4848508 C293.620225,51.8764326 293.084093,49.0361976 293.084093,45.9640605 C293.084093,42.8919235 293.620225,40.0516885 294.692505,37.4432703 C295.764786,34.834852 297.257261,32.5742568 299.169978,30.6614168 C301.082694,28.7485767 303.372123,27.2560043 306.038333,26.1836545 C308.704543,25.1113048 311.602554,24.575138 314.732454,24.575138 C317.920314,24.575138 320.847305,25.1113048 323.513515,26.1836545 C326.179726,27.2560043 328.469155,28.7485767 330.381871,30.6614168 C332.294587,32.5742568 333.787063,34.834852 334.859343,37.4432703 C335.931623,40.0516885 336.467755,42.8919235 336.467755,45.9640605 L336.467755,45.9640605 Z M330.207988,45.9640605 C330.207988,43.7034314 329.845737,41.5732551 329.121223,39.5734678 C328.39671,37.5736805 327.367916,35.8347611 326.03481,34.3566575 C324.701705,32.8785538 323.078819,31.7047832 321.166103,30.8353105 C319.253387,29.9658377 317.108858,29.5311079 314.732454,29.5311079 C312.356049,29.5311079 310.22601,29.9658377 308.342275,30.8353105 C306.458539,31.7047832 304.850143,32.8785538 303.517038,34.3566575 C302.183933,35.8347611 301.155139,37.5736805 300.430625,39.5734678 C299.706111,41.5732551 299.34386,43.7034314 299.34386,45.9640605 C299.34386,48.2246897 299.706111,50.3548659 300.430625,52.3546532 C301.155139,54.3544405 302.183933,56.0933599 303.517038,57.5714636 C304.850143,59.0495673 306.458539,60.2088469 308.342275,61.0493372 C310.22601,61.8898275 312.356049,62.3100664 314.732454,62.3100664 C317.108858,62.3100664 319.253387,61.8898275 321.166103,61.0493372 C323.078819,60.2088469 324.701705,59.0495673 326.03481,57.5714636 C327.367916,56.0933599 328.39671,54.3544405 329.121223,52.3546532 C329.845737,50.3548659 330.207988,48.2246897 330.207988,45.9640605 L330.207988,45.9640605 Z M354.464585,25.6185001 C354.580507,26.7198322 354.667448,27.9370758 354.725409,29.2702673 C354.78337,30.6034589 354.81235,31.7047745 354.81235,32.5742473 L354.986232,32.5742473 C356.145454,30.1976884 358.029162,28.2703861 360.637411,26.7922824 C363.24566,25.3141788 365.998771,24.575138 368.896826,24.575138 C374.055363,24.575138 377.924208,26.1111835 380.503477,29.1833205 C383.082745,32.2554575 384.37236,36.3129361 384.37236,41.355878 L384.37236,66.309621 L378.460358,66.309621 L378.460358,43.7903895 C378.460358,41.6456901 378.286478,39.7038968 377.938711,37.9649513 C377.590945,36.2260058 376.996852,34.7334333 376.156416,33.4871891 C375.31598,32.2409448 374.185756,31.2700481 372.765709,30.5744699 C371.345662,29.8788917 369.563386,29.5311079 367.418825,29.5311079 C365.853875,29.5311079 364.33242,29.8499098 362.854412,30.4875231 C361.376404,31.1251364 360.057809,32.0960331 358.898587,33.4002422 C357.739365,34.7044513 356.812001,36.3564248 356.116468,38.3562121 C355.420935,40.3559994 355.073174,42.7180316 355.073174,45.4423795 L355.073174,66.309621 L349.161172,66.309621 L349.161172,34.5740246 C349.161172,33.4726924 349.132191,32.0525749 349.07423,30.3136294 C349.016269,28.5746839 348.929329,27.0096565 348.813407,25.6185001 L354.464585,25.6185001 Z M433.146378,59.4408207 C431.407545,62.0492389 429.147096,64.0200142 426.364963,65.3532057 C423.582831,66.6863973 420.7138,67.3529831 417.757784,67.3529831 C414.569924,67.3529831 411.686403,66.8023252 409.107134,65.7009931 C406.527865,64.599661 404.325377,63.0925975 402.499602,61.1797574 C400.673828,59.2669174 399.253802,57.0063222 398.239483,54.397904 C397.225164,51.7894857 396.718012,48.9782327 396.718012,45.9640605 C396.718012,42.9498884 397.225164,40.1386353 398.239483,37.5302171 C399.253802,34.9217989 400.673828,32.6612037 402.499602,30.7483636 C404.325377,28.8355236 406.527865,27.3284601 409.107134,26.227128 C411.686403,25.1257958 414.569924,24.575138 417.757784,24.575138 C420.7138,24.575138 423.582831,25.2562148 426.364963,26.6183887 C429.147096,27.9805627 431.407545,29.994811 433.146378,32.6611941 L433.32026,32.6611941 L433.32026,0.57781031 L439.232262,0.57781031 L439.232262,66.309621 L433.32026,66.309621 L433.32026,59.4408207 L433.146378,59.4408207 Z M402.977779,45.9640605 C402.977779,48.2246897 403.32554,50.3548659 404.021073,52.3546532 C404.716606,54.3544405 405.71642,56.0933599 407.020545,57.5714636 C408.324669,59.0495673 409.933066,60.2088469 411.845782,61.0493372 C413.758498,61.8898275 415.932006,62.3100664 418.366372,62.3100664 C420.626855,62.3100664 422.713423,61.8898275 424.626139,61.0493372 C426.538855,60.2088469 428.190722,59.0640583 429.581788,57.614937 C430.972854,56.1658158 432.059609,54.4413874 432.842083,52.4416001 C433.624558,50.4418128 434.01579,48.2826545 434.01579,45.9640605 C434.01579,43.6454666 433.624558,41.4863083 432.842083,39.486521 C432.059609,37.4867337 430.972854,35.7478143 429.581788,34.2697106 C428.190722,32.791607 426.538855,31.6323274 424.626139,30.791837 C422.713423,29.9513467 420.626855,29.5311079 418.366372,29.5311079 C415.932006,29.5311079 413.758498,29.9658377 411.845782,30.8353105 C409.933066,31.7047832 408.324669,32.8785538 407.020545,34.3566575 C405.71642,35.8347611 404.716606,37.5736805 404.021073,39.5734678 C403.32554,41.5732551 402.977779,43.7034314 402.977779,45.9640605 L402.977779,45.9640605 Z" id="respond-"></path>
                    <path d="M10.5450972,2.13870182 L59.5797994,2.13870182 L59.5797994,12.6731703 L10.5450972,12.6731703 L10.5450972,81.147215 L0,81.147215 L0,2.13870182 L10.5450972,2.13870182 Z M70.1248966,81.147215 L21.0901945,81.147215 L21.0901945,70.6127466 L70.1248966,70.6127466 L70.1248966,2.13870182 L80.6699938,2.13870182 L80.6699938,81.147215 L70.1248966,81.147215 Z" id="Combined-Shape"></path>
                </g>
            </g>
        </g>
    </g>
</svg>