<?xml version="1.0" encoding="UTF-8"?>
<svg width="75px" height="70px" viewBox="0 0 75 70" version="1.1" xmlns="http://www.w3.org/2000/svg" xmlns:xlink="http://www.w3.org/1999/xlink">
    <!-- Generator: Sketch 52.2 (67145) - http://www.bohemiancoding.com/sketch -->
    <title>Group</title>
    <desc>Created with Sketch.</desc>
    <defs>
        <path d="M6.86964103,9.59232693e-13 L46.6952763,1.11771159e-12 C50.4928703,1.11771159e-12 53.5714286,3.07351176 53.5714286,6.86425308 L53.5714286,8.23378614 C53.5714286,12.0248084 50.4889749,15.0980392 46.6952763,15.0980392 L17.2637363,15.0980392 C16.0741999,15.0980392 15.1098901,16.062349 15.1098901,17.2518854 L15.1098901,63.1286356 C15.1098901,66.9235854 12.0339659,70 8.24024908,70 L6.86964103,70 C3.07564305,70 -1.54365409e-11,66.9245587 -1.54365409e-11,63.1286356 L-1.54365409e-11,6.87136437 C-1.54365409e-11,3.07641462 3.07592425,9.59232693e-13 6.86964103,9.59232693e-13 Z M68.130359,70 L28.3047237,70 C24.5071297,70 21.4285714,66.9264882 21.4285714,63.1357469 L21.4285714,61.7662139 C21.4285714,57.9751916 24.5110251,54.9019608 28.3047237,54.9019608 L57.7362637,54.9019608 C58.9258001,54.9019608 59.8901099,53.937651 59.8901099,52.7481146 L59.8901099,6.87136437 C59.8901099,3.07641462 62.9660341,1.5063506e-12 66.7597509,1.5063506e-12 L68.130359,1.5063506e-12 C71.9243569,1.5063506e-12 75,3.07544128 75,6.87136437 L75,63.1286356 C75,66.9235854 71.9240757,70 68.130359,70 Z" id="path-1"></path>
        <linearGradient x1="5.26431075%" y1="0%" x2="109.437062%" y2="104.734959%" id="linearGradient-3">
            <stop stop-color="#2EBF91" offset="0%"></stop>
            <stop stop-color="#8360C3" offset="100%"></stop>
        </linearGradient>
    </defs>
    <g id="Page-1" stroke="none" stroke-width="1" fill="none" fill-rule="evenodd">
        <g id="Branding-Copy-9" transform="translate(-204.000000, -29.000000)">
            <g id="brand" transform="translate(204.000000, 29.000000)">
                <g id="logo">
                    <g id="Group">
                        <mask id="mask-2" fill="white">
                            <use xlink:href="#path-1"></use>
                        </mask>
                        <use id="Combined-Shape" fill="#FFFFFF" xlink:href="#path-1"></use>
                        <rect id="Rectangle" fill="url(#linearGradient-3)" mask="url(#mask-2)" x="-6" y="-10" width="84" height="84" rx="8"></rect>
                    </g>
                </g>
            </g>
        </g>
    </g>
</svg>